<svg id="visual" viewBox="0 0 900 600" width="900" height="600" xmlns="http://www.w3.org/2000/svg" xmlns:xlink="http://www.w3.org/1999/xlink" version="1.1"><path d="M0 115L13.7 115C27.3 115 54.7 115 82 139C109.3 163 136.7 211 163.8 204C191 197 218 135 245.2 132C272.3 129 299.7 185 327 214C354.3 243 381.7 245 409 239C436.3 233 463.7 219 491 208C518.3 197 545.7 189 573 187C600.3 185 627.7 189 654.8 182C682 175 709 157 736.2 160C763.3 163 790.7 187 818 182C845.3 177 872.7 143 886.3 126L900 109L900 0L886.3 0C872.7 0 845.3 0 818 0C790.7 0 763.3 0 736.2 0C709 0 682 0 654.8 0C627.7 0 600.3 0 573 0C545.7 0 518.3 0 491 0C463.7 0 436.3 0 409 0C381.7 0 354.3 0 327 0C299.7 0 272.3 0 245.2 0C218 0 191 0 163.8 0C136.7 0 109.3 0 82 0C54.7 0 27.3 0 13.7 0L0 0Z" fill="#111111"></path><path d="M0 229L13.7 219C27.3 209 54.7 189 82 210C109.3 231 136.7 293 163.8 297C191 301 218 247 245.2 236C272.3 225 299.7 257 327 286C354.3 315 381.7 341 409 336C436.3 331 463.7 295 491 280C518.3 265 545.7 271 573 276C600.3 281 627.7 285 654.8 273C682 261 709 233 736.2 232C763.3 231 790.7 257 818 258C845.3 259 872.7 235 886.3 223L900 211L900 107L886.3 124C872.7 141 845.3 175 818 180C790.7 185 763.3 161 736.2 158C709 155 682 173 654.8 180C627.7 187 600.3 183 573 185C545.7 187 518.3 195 491 206C463.7 217 436.3 231 409 237C381.7 243 354.3 241 327 212C299.7 183 272.3 127 245.2 130C218 133 191 195 163.8 202C136.7 209 109.3 161 82 137C54.7 113 27.3 113 13.7 113L0 113Z" fill="#0d0d0d"></path><path d="M0 331L13.7 326C27.3 321 54.7 311 82 326C109.3 341 136.7 381 163.8 388C191 395 218 369 245.2 365C272.3 361 299.7 379 327 397C354.3 415 381.7 433 409 438C436.3 443 463.7 435 491 423C518.3 411 545.7 395 573 393C600.3 391 627.7 403 654.8 386C682 369 709 323 736.2 310C763.3 297 790.7 317 818 331C845.3 345 872.7 353 886.3 357L900 361L900 209L886.3 221C872.7 233 845.3 257 818 256C790.7 255 763.3 229 736.2 230C709 231 682 259 654.8 271C627.7 283 600.3 279 573 274C545.7 269 518.3 263 491 278C463.7 293 436.3 329 409 334C381.7 339 354.3 313 327 284C299.7 255 272.3 223 245.2 234C218 245 191 299 163.8 295C136.7 291 109.3 229 82 208C54.7 187 27.3 207 13.7 217L0 227Z" fill="#090909"></path><path d="M0 529L13.7 529C27.3 529 54.7 529 82 533C109.3 537 136.7 545 163.8 550C191 555 218 557 245.2 557C272.3 557 299.7 555 327 552C354.3 549 381.7 545 409 542C436.3 539 463.7 537 491 534C518.3 531 545.7 527 573 526C600.3 525 627.7 527 654.8 526C682 525 709 521 736.2 521C763.3 521 790.7 525 818 529C845.3 533 872.7 537 886.3 539L900 541L900 359L886.3 355C872.7 351 845.3 343 818 329C790.7 315 763.3 295 736.2 308C709 321 682 367 654.8 384C627.7 401 600.3 389 573 391C545.7 393 518.3 409 491 421C463.7 433 436.3 441 409 436C381.7 431 354.3 413 327 395C299.7 377 272.3 359 245.2 363C218 367 191 393 163.8 386C136.7 379 109.3 339 82 324C54.7 309 27.3 319 13.7 324L0 329Z" fill="#050405"></path><path d="M0 601L13.7 601C27.3 601 54.7 601 82 601C109.3 601 136.7 601 163.8 601C191 601 218 601 245.2 601C272.3 601 299.7 601 327 601C354.3 601 381.7 601 409 601C436.3 601 463.7 601 491 601C518.3 601 545.7 601 573 601C600.3 601 627.7 601 654.8 601C682 601 709 601 736.2 601C763.3 601 790.7 601 818 601C845.3 601 872.7 601 886.3 601L900 601L900 539L886.3 537C872.7 535 845.3 531 818 527C790.7 523 763.3 519 736.2 519C709 519 682 523 654.8 524C627.7 525 600.3 523 573 524C545.7 525 518.3 529 491 532C463.7 535 436.3 537 409 540C381.7 543 354.3 547 327 550C299.7 553 272.3 555 245.2 555C218 555 191 553 163.8 548C136.7 543 109.3 535 82 531C54.7 527 27.3 527 13.7 527L0 527Z" fill="#000000"></path></svg>