<svg id="visual" viewBox="0 0 900 600" width="900" height="600" xmlns="http://www.w3.org/2000/svg" xmlns:xlink="http://www.w3.org/1999/xlink" version="1.1"><path d="M0 145L7.8 141C15.7 137 31.3 129 47.2 124C63 119 79 117 94.8 102C110.7 87 126.3 59 142 66C157.7 73 173.3 115 189.2 126C205 137 221 117 236.8 116C252.7 115 268.3 133 284.2 129C300 125 316 99 331.8 84C347.7 69 363.3 65 379 72C394.7 79 410.3 97 426.2 103C442 109 458 103 473.8 91C489.7 79 505.3 61 521 61C536.7 61 552.3 79 568.2 98C584 117 600 137 615.8 134C631.7 131 647.3 105 663.2 104C679 103 695 127 710.8 122C726.7 117 742.3 83 758 78C773.7 73 789.3 97 805.2 100C821 103 837 85 852.8 90C868.7 95 884.3 123 892.2 137L900 151L900 0L892.2 0C884.3 0 868.7 0 852.8 0C837 0 821 0 805.2 0C789.3 0 773.7 0 758 0C742.3 0 726.7 0 710.8 0C695 0 679 0 663.2 0C647.3 0 631.7 0 615.8 0C600 0 584 0 568.2 0C552.3 0 536.7 0 521 0C505.3 0 489.7 0 473.8 0C458 0 442 0 426.2 0C410.3 0 394.7 0 379 0C363.3 0 347.7 0 331.8 0C316 0 300 0 284.2 0C268.3 0 252.7 0 236.8 0C221 0 205 0 189.2 0C173.3 0 157.7 0 142 0C126.3 0 110.7 0 94.8 0C79 0 63 0 47.2 0C31.3 0 15.7 0 7.8 0L0 0Z" fill="#454545"></path><path d="M0 241L7.8 234C15.7 227 31.3 213 47.2 199C63 185 79 171 94.8 161C110.7 151 126.3 145 142 162C157.7 179 173.3 219 189.2 235C205 251 221 243 236.8 243C252.7 243 268.3 251 284.2 237C300 223 316 187 331.8 175C347.7 163 363.3 175 379 186C394.7 197 410.3 207 426.2 199C442 191 458 165 473.8 142C489.7 119 505.3 99 521 107C536.7 115 552.3 151 568.2 171C584 191 600 195 615.8 198C631.7 201 647.3 203 663.2 211C679 219 695 233 710.8 230C726.7 227 742.3 207 758 202C773.7 197 789.3 207 805.2 196C821 185 837 153 852.8 146C868.7 139 884.3 157 892.2 166L900 175L900 149L892.2 135C884.3 121 868.7 93 852.8 88C837 83 821 101 805.2 98C789.3 95 773.7 71 758 76C742.3 81 726.7 115 710.8 120C695 125 679 101 663.2 102C647.3 103 631.7 129 615.8 132C600 135 584 115 568.2 96C552.3 77 536.7 59 521 59C505.3 59 489.7 77 473.8 89C458 101 442 107 426.2 101C410.3 95 394.7 77 379 70C363.3 63 347.7 67 331.8 82C316 97 300 123 284.2 127C268.3 131 252.7 113 236.8 114C221 115 205 135 189.2 124C173.3 113 157.7 71 142 64C126.3 57 110.7 85 94.8 100C79 115 63 117 47.2 122C31.3 127 15.7 135 7.8 139L0 143Z" fill="#333333"></path><path d="M0 463L7.8 441C15.7 419 31.3 375 47.2 373C63 371 79 411 94.8 399C110.7 387 126.3 323 142 310C157.7 297 173.3 335 189.2 347C205 359 221 345 236.8 357C252.7 369 268.3 407 284.2 405C300 403 316 361 331.8 355C347.7 349 363.3 379 379 384C394.7 389 410.3 369 426.2 367C442 365 458 381 473.8 370C489.7 359 505.3 321 521 302C536.7 283 552.3 283 568.2 299C584 315 600 347 615.8 355C631.7 363 647.3 347 663.2 336C679 325 695 319 710.8 346C726.7 373 742.3 433 758 448C773.7 463 789.3 433 805.2 381C821 329 837 255 852.8 234C868.7 213 884.3 245 892.2 261L900 277L900 173L892.2 164C884.3 155 868.7 137 852.8 144C837 151 821 183 805.2 194C789.3 205 773.7 195 758 200C742.3 205 726.7 225 710.8 228C695 231 679 217 663.2 209C647.3 201 631.7 199 615.8 196C600 193 584 189 568.2 169C552.3 149 536.7 113 521 105C505.3 97 489.7 117 473.8 140C458 163 442 189 426.2 197C410.3 205 394.7 195 379 184C363.3 173 347.7 161 331.8 173C316 185 300 221 284.2 235C268.3 249 252.7 241 236.8 241C221 241 205 249 189.2 233C173.3 217 157.7 177 142 160C126.3 143 110.7 149 94.8 159C79 169 63 183 47.2 197C31.3 211 15.7 225 7.8 232L0 239Z" fill="#222222"></path><path d="M0 553L7.8 523C15.7 493 31.3 433 47.2 433C63 433 79 493 94.8 490C110.7 487 126.3 421 142 394C157.7 367 173.3 379 189.2 388C205 397 221 403 236.8 432C252.7 461 268.3 513 284.2 513C300 513 316 461 331.8 448C347.7 435 363.3 461 379 463C394.7 465 410.3 443 426.2 439C442 435 458 449 473.8 446C489.7 443 505.3 423 521 401C536.7 379 552.3 355 568.2 363C584 371 600 411 615.8 418C631.7 425 647.3 399 663.2 390C679 381 695 389 710.8 412C726.7 435 742.3 473 758 489C773.7 505 789.3 499 805.2 464C821 429 837 365 852.8 346C868.7 327 884.3 353 892.2 366L900 379L900 275L892.2 259C884.3 243 868.7 211 852.8 232C837 253 821 327 805.2 379C789.3 431 773.7 461 758 446C742.3 431 726.7 371 710.8 344C695 317 679 323 663.2 334C647.3 345 631.7 361 615.8 353C600 345 584 313 568.2 297C552.3 281 536.7 281 521 300C505.3 319 489.7 357 473.8 368C458 379 442 363 426.2 365C410.3 367 394.7 387 379 382C363.3 377 347.7 347 331.8 353C316 359 300 401 284.2 403C268.3 405 252.7 367 236.8 355C221 343 205 357 189.2 345C173.3 333 157.7 295 142 308C126.3 321 110.7 385 94.8 397C79 409 63 369 47.2 371C31.3 373 15.7 417 7.8 439L0 461Z" fill="#1e1e1e"></path><path d="M0 601L7.8 601C15.7 601 31.3 601 47.2 601C63 601 79 601 94.8 601C110.7 601 126.3 601 142 601C157.7 601 173.3 601 189.2 601C205 601 221 601 236.8 601C252.7 601 268.3 601 284.2 601C300 601 316 601 331.8 601C347.7 601 363.3 601 379 601C394.7 601 410.3 601 426.2 601C442 601 458 601 473.8 601C489.7 601 505.3 601 521 601C536.7 601 552.3 601 568.2 601C584 601 600 601 615.8 601C631.7 601 647.3 601 663.2 601C679 601 695 601 710.8 601C726.7 601 742.3 601 758 601C773.7 601 789.3 601 805.2 601C821 601 837 601 852.8 601C868.7 601 884.3 601 892.2 601L900 601L900 377L892.2 364C884.3 351 868.7 325 852.8 344C837 363 821 427 805.2 462C789.3 497 773.7 503 758 487C742.3 471 726.7 433 710.8 410C695 387 679 379 663.2 388C647.3 397 631.7 423 615.8 416C600 409 584 369 568.2 361C552.3 353 536.7 377 521 399C505.3 421 489.7 441 473.8 444C458 447 442 433 426.2 437C410.3 441 394.7 463 379 461C363.3 459 347.7 433 331.8 446C316 459 300 511 284.2 511C268.3 511 252.7 459 236.8 430C221 401 205 395 189.2 386C173.3 377 157.7 365 142 392C126.3 419 110.7 485 94.8 488C79 491 63 431 47.2 431C31.3 431 15.7 491 7.8 521L0 551Z" fill="#1b1b1b"></path></svg>