<svg id="visual" viewBox="0 0 900 600" width="900" height="600" xmlns="http://www.w3.org/2000/svg" xmlns:xlink="http://www.w3.org/1999/xlink" version="1.1"><g stroke-width="1" stroke-linejoin="bevel"><path d="M480.8 287.8L505.5 308.3L543 272.3Z" fill="#141414" stroke="#141414"></path><path d="M543 272.3L557.3 243.7L480.8 287.8Z" fill="#212121" stroke="#212121"></path><path d="M583.5 344.8L592 289.2L543 272.3Z" fill="#000000" stroke="#000000"></path><path d="M543 272.3L592 289.2L557.3 243.7Z" fill="#000000" stroke="#000000"></path><path d="M434.8 219.2L435 237.2L540.3 183.6Z" fill="#000000" stroke="#000000"></path><path d="M435 237.2L427.3 251.3L480.8 287.8Z" fill="#282828" stroke="#282828"></path><path d="M434.8 374.3L525 383.8L505.5 308.3Z" fill="#000000" stroke="#000000"></path><path d="M540.3 183.6L435 237.2L480.8 287.8Z" fill="#212121" stroke="#212121"></path><path d="M435 237.2L434.8 219.2L427.3 251.3Z" fill="#000000" stroke="#000000"></path><path d="M631 183.1L540.3 183.6L557.3 243.7Z" fill="#282828" stroke="#282828"></path><path d="M557.3 243.7L540.3 183.6L480.8 287.8Z" fill="#000000" stroke="#000000"></path><path d="M525 383.8L564.5 358.4L505.5 308.3Z" fill="#000000" stroke="#000000"></path><path d="M505.5 308.3L583.5 344.8L543 272.3Z" fill="#000000" stroke="#000000"></path><path d="M564.5 358.4L583.5 344.8L505.5 308.3Z" fill="#1b1b1b" stroke="#1b1b1b"></path><path d="M415.3 337.8L505.5 308.3L480.8 287.8Z" fill="#000000" stroke="#000000"></path><path d="M427.3 251.3L415.3 337.8L480.8 287.8Z" fill="#000000" stroke="#000000"></path><path d="M540.3 183.6L480 163.6L434.8 219.2Z" fill="#000000" stroke="#000000"></path><path d="M530.3 164.2L480 163.6L540.3 183.6Z" fill="#000000" stroke="#000000"></path><path d="M486.8 142.5L479.8 158.6L480 163.6Z" fill="#1b1b1b" stroke="#1b1b1b"></path><path d="M480 163.6L427 181.7L434.8 219.2Z" fill="#000000" stroke="#000000"></path><path d="M415.3 337.8L434.8 374.3L505.5 308.3Z" fill="#000000" stroke="#000000"></path><path d="M479.8 158.6L427 181.7L480 163.6Z" fill="#1b1b1b" stroke="#1b1b1b"></path><path d="M434.8 219.2L358.3 241.7L427.3 251.3Z" fill="#212121" stroke="#212121"></path><path d="M427.3 251.3L358.3 241.7L415.3 337.8Z" fill="#141414" stroke="#141414"></path><path d="M648.3 302.7L638.5 275.7L592 289.2Z" fill="#000000" stroke="#000000"></path><path d="M592 289.2L638.5 275.7L557.3 243.7Z" fill="#000000" stroke="#000000"></path><path d="M540.3 183.6L565.8 98.1L530.3 164.2Z" fill="#0c0c0c" stroke="#0c0c0c"></path><path d="M564.5 358.4L606.8 366.7L583.5 344.8Z" fill="#000000" stroke="#000000"></path><path d="M583.5 344.8L648.3 302.7L592 289.2Z" fill="#141414" stroke="#141414"></path><path d="M610.8 423.4L606.8 366.7L564.5 358.4Z" fill="#282828" stroke="#282828"></path><path d="M530.3 164.2L486.8 142.5L480 163.6Z" fill="#000000" stroke="#000000"></path><path d="M479.8 158.6L393.5 158.2L427 181.7Z" fill="#000000" stroke="#000000"></path><path d="M606.8 366.7L648.3 302.7L583.5 344.8Z" fill="#000000" stroke="#000000"></path><path d="M656.3 173.2L631 183.1L638.5 275.7Z" fill="#000000" stroke="#000000"></path><path d="M638.5 275.7L631 183.1L557.3 243.7Z" fill="#1b1b1b" stroke="#1b1b1b"></path><path d="M530.3 164.2L565.8 98.1L486.8 142.5Z" fill="#212121" stroke="#212121"></path><path d="M696 363.7L663.8 289.2L648.3 302.7Z" fill="#000000" stroke="#000000"></path><path d="M648.3 302.7L663.8 289.2L638.5 275.7Z" fill="#000000" stroke="#000000"></path><path d="M434.8 374.3L482 428.4L525 383.8Z" fill="#000000" stroke="#000000"></path><path d="M525 383.8L610.8 423.4L564.5 358.4Z" fill="#1b1b1b" stroke="#1b1b1b"></path><path d="M427 181.7L358.3 241.7L434.8 219.2Z" fill="#212121" stroke="#212121"></path><path d="M415.3 337.8L383.5 398.3L434.8 374.3Z" fill="#1b1b1b" stroke="#1b1b1b"></path><path d="M486.8 142.5L393.5 158.2L479.8 158.6Z" fill="#212121" stroke="#212121"></path><path d="M427 181.7L393.5 158.2L358.3 241.7Z" fill="#282828" stroke="#282828"></path><path d="M353.8 400.4L383.5 398.3L415.3 337.8Z" fill="#000000" stroke="#000000"></path><path d="M434.8 374.3L410.5 426.4L482 428.4Z" fill="#212121" stroke="#212121"></path><path d="M578.5 460.5L610.8 423.4L525 383.8Z" fill="#000000" stroke="#000000"></path><path d="M606.8 366.7L696 363.7L648.3 302.7Z" fill="#1b1b1b" stroke="#1b1b1b"></path><path d="M663.8 289.2L656.3 173.2L638.5 275.7Z" fill="#212121" stroke="#212121"></path><path d="M621.8 109.6L565.8 98.1L540.3 183.6Z" fill="#000000" stroke="#000000"></path><path d="M383.5 398.3L410.5 426.4L434.8 374.3Z" fill="#000000" stroke="#000000"></path><path d="M621.8 109.6L540.3 183.6L631 183.1Z" fill="#141414" stroke="#141414"></path><path d="M386 52.1L360.5 79.6L393.5 158.2Z" fill="#212121" stroke="#212121"></path><path d="M393.5 158.2L334.5 203.7L358.3 241.7Z" fill="#1b1b1b" stroke="#1b1b1b"></path><path d="M358.3 241.7L321.5 300.8L415.3 337.8Z" fill="#1b1b1b" stroke="#1b1b1b"></path><path d="M311.8 298.7L321.5 300.8L358.3 241.7Z" fill="#1b1b1b" stroke="#1b1b1b"></path><path d="M639 455.8L634.8 422.8L610.8 423.4Z" fill="#0c0c0c" stroke="#0c0c0c"></path><path d="M610.8 423.4L634.8 422.8L606.8 366.7Z" fill="#000000" stroke="#000000"></path><path d="M334.5 203.7L327.3 221.2L358.3 241.7Z" fill="#000000" stroke="#000000"></path><path d="M475.3 505.9L578.5 460.5L482 428.4Z" fill="#000000" stroke="#000000"></path><path d="M482 428.4L578.5 460.5L525 383.8Z" fill="#000000" stroke="#000000"></path><path d="M309.3 320.8L353.8 400.4L415.3 337.8Z" fill="#000000" stroke="#000000"></path><path d="M383.5 398.3L353.8 400.4L410.5 426.4Z" fill="#000000" stroke="#000000"></path><path d="M655.5 129.2L621.8 109.6L631 183.1Z" fill="#1b1b1b" stroke="#1b1b1b"></path><path d="M327.3 221.2L311.8 298.7L358.3 241.7Z" fill="#212121" stroke="#212121"></path><path d="M321.5 300.8L309.3 320.8L415.3 337.8Z" fill="#0c0c0c" stroke="#0c0c0c"></path><path d="M373 524.5L428.8 460.9L410.5 426.4Z" fill="#000000" stroke="#000000"></path><path d="M410.5 426.4L428.8 460.9L482 428.4Z" fill="#000000" stroke="#000000"></path><path d="M696.8 374.3L696 363.7L606.8 366.7Z" fill="#000000" stroke="#000000"></path><path d="M754.5 182.1L736 166.6L656.3 173.2Z" fill="#000000" stroke="#000000"></path><path d="M458.8 480.5L438.3 469.4L373 524.5Z" fill="#1b1b1b" stroke="#1b1b1b"></path><path d="M428.8 460.9L438.3 469.4L482 428.4Z" fill="#1b1b1b" stroke="#1b1b1b"></path><path d="M736 166.6L655.5 129.2L656.3 173.2Z" fill="#000000" stroke="#000000"></path><path d="M656.3 173.2L655.5 129.2L631 183.1Z" fill="#141414" stroke="#141414"></path><path d="M311.8 298.7L309.3 320.8L321.5 300.8Z" fill="#212121" stroke="#212121"></path><path d="M578.5 460.5L604 461.4L610.8 423.4Z" fill="#141414" stroke="#141414"></path><path d="M634.8 422.8L696.8 374.3L606.8 366.7Z" fill="#141414" stroke="#141414"></path><path d="M652 482.5L604 461.4L641.8 506.5Z" fill="#000000" stroke="#000000"></path><path d="M680.3 427.9L696.8 374.3L634.8 422.8Z" fill="#141414" stroke="#141414"></path><path d="M438.3 469.4L458.8 480.5L482 428.4Z" fill="#282828" stroke="#282828"></path><path d="M629.5 73.5L555.5 69.6L565.8 98.1Z" fill="#000000" stroke="#000000"></path><path d="M565.8 98.1L519.5 61.1L486.8 142.5Z" fill="#000000" stroke="#000000"></path><path d="M556.8 50.5L555.5 69.6L575.3 37.1Z" fill="#000000" stroke="#000000"></path><path d="M555.5 69.6L519.5 61.1L565.8 98.1Z" fill="#212121" stroke="#212121"></path><path d="M604 461.4L639 455.8L610.8 423.4Z" fill="#000000" stroke="#000000"></path><path d="M639 455.8L680.3 427.9L634.8 422.8Z" fill="#1b1b1b" stroke="#1b1b1b"></path><path d="M334.5 203.7L287 236.7L327.3 221.2Z" fill="#000000" stroke="#000000"></path><path d="M327.3 221.2L287 236.7L311.8 298.7Z" fill="#000000" stroke="#000000"></path><path d="M311.8 298.7L258.8 252.3L309.3 320.8Z" fill="#0c0c0c" stroke="#0c0c0c"></path><path d="M298.8 130.1L287 236.7L334.5 203.7Z" fill="#000000" stroke="#000000"></path><path d="M298.8 130.1L334.5 203.7L393.5 158.2Z" fill="#282828" stroke="#282828"></path><path d="M629.5 73.5L565.8 98.1L621.8 109.6Z" fill="#212121" stroke="#212121"></path><path d="M555.5 69.6L556.8 50.5L519.5 61.1Z" fill="#141414" stroke="#141414"></path><path d="M373 524.5L438.3 469.4L428.8 460.9Z" fill="#000000" stroke="#000000"></path><path d="M373 524.5L475.3 505.9L458.8 480.5Z" fill="#1b1b1b" stroke="#1b1b1b"></path><path d="M458.8 480.5L475.3 505.9L482 428.4Z" fill="#141414" stroke="#141414"></path><path d="M604 461.4L652 482.5L639 455.8Z" fill="#212121" stroke="#212121"></path><path d="M726 421.3L732.3 355.3L696.8 374.3Z" fill="#000000" stroke="#000000"></path><path d="M696.8 374.3L732.3 355.3L696 363.7Z" fill="#000000" stroke="#000000"></path><path d="M696 363.7L732.3 355.3L663.8 289.2Z" fill="#000000" stroke="#000000"></path><path d="M655.5 129.2L629.5 73.5L621.8 109.6Z" fill="#0c0c0c" stroke="#0c0c0c"></path><path d="M386 52.1L486.8 142.5L519.5 61.1Z" fill="#000000" stroke="#000000"></path><path d="M386 52.1L393.5 158.2L486.8 142.5Z" fill="#1b1b1b" stroke="#1b1b1b"></path><path d="M629.5 73.5L575.3 37.1L555.5 69.6Z" fill="#000000" stroke="#000000"></path><path d="M549.3 0L503.5 0L519.5 61.1Z" fill="#000000" stroke="#000000"></path><path d="M639 455.8L652 482.5L680.3 427.9Z" fill="#141414" stroke="#141414"></path><path d="M680.3 427.9L726 421.3L696.8 374.3Z" fill="#212121" stroke="#212121"></path><path d="M641.8 506.5L604 461.4L578.5 460.5Z" fill="#0c0c0c" stroke="#0c0c0c"></path><path d="M754.5 182.1L656.3 173.2L663.8 289.2Z" fill="#000000" stroke="#000000"></path><path d="M655.5 129.2L679.3 53.5L629.5 73.5Z" fill="#000000" stroke="#000000"></path><path d="M251.8 116.5L258.8 252.3L287 236.7Z" fill="#000000" stroke="#000000"></path><path d="M287 236.7L258.8 252.3L311.8 298.7Z" fill="#0c0c0c" stroke="#0c0c0c"></path><path d="M309.3 320.8L302.3 420.3L353.8 400.4Z" fill="#000000" stroke="#000000"></path><path d="M237 420.8L302.3 420.3L309.3 320.8Z" fill="#0c0c0c" stroke="#0c0c0c"></path><path d="M353.8 400.4L373 524.5L410.5 426.4Z" fill="#1b1b1b" stroke="#1b1b1b"></path><path d="M422.5 0L386 52.1L519.5 61.1Z" fill="#1b1b1b" stroke="#1b1b1b"></path><path d="M339.3 82.6L393.5 158.2L360.5 79.6Z" fill="#000000" stroke="#000000"></path><path d="M310 105.1L298.8 130.1L393.5 158.2Z" fill="#1b1b1b" stroke="#1b1b1b"></path><path d="M329.5 47.1L339.3 82.6L360.5 79.6Z" fill="#212121" stroke="#212121"></path><path d="M717.3 440.4L726 421.3L680.3 427.9Z" fill="#0c0c0c" stroke="#0c0c0c"></path><path d="M631 0L576.3 25.5L575.3 37.1Z" fill="#212121" stroke="#212121"></path><path d="M575.3 37.1L576.3 25.5L556.8 50.5Z" fill="#000000" stroke="#000000"></path><path d="M631 0L575.3 37.1L629.5 73.5Z" fill="#000000" stroke="#000000"></path><path d="M783.8 282.2L754.5 182.1L663.8 289.2Z" fill="#000000" stroke="#000000"></path><path d="M736 166.6L742.3 149.1L655.5 129.2Z" fill="#0c0c0c" stroke="#0c0c0c"></path><path d="M783.8 282.2L663.8 289.2L732.3 355.3Z" fill="#000000" stroke="#000000"></path><path d="M652 482.5L717.3 440.4L680.3 427.9Z" fill="#000000" stroke="#000000"></path><path d="M753.5 152.2L742.3 149.1L736 166.6Z" fill="#000000" stroke="#000000"></path><path d="M339.3 82.6L310 105.1L393.5 158.2Z" fill="#000000" stroke="#000000"></path><path d="M634.5 546.9L641.8 506.5L578.5 460.5Z" fill="#0c0c0c" stroke="#0c0c0c"></path><path d="M747 489.9L742.5 462.4L717.3 440.4Z" fill="#212121" stroke="#212121"></path><path d="M742.5 462.4L730.5 430.9L717.3 440.4Z" fill="#000000" stroke="#000000"></path><path d="M717.3 440.4L730.5 430.9L726 421.3Z" fill="#1b1b1b" stroke="#1b1b1b"></path><path d="M726 421.3L769.8 428.9L732.3 355.3Z" fill="#000000" stroke="#000000"></path><path d="M482.3 600L534.8 545.9L475.3 505.9Z" fill="#000000" stroke="#000000"></path><path d="M475.3 505.9L534.8 545.9L578.5 460.5Z" fill="#000000" stroke="#000000"></path><path d="M754.5 182.1L753.5 152.2L736 166.6Z" fill="#1b1b1b" stroke="#1b1b1b"></path><path d="M741.3 95.6L679.3 53.5L655.5 129.2Z" fill="#000000" stroke="#000000"></path><path d="M808.5 292.8L783.8 282.2L818.5 344.3Z" fill="#000000" stroke="#000000"></path><path d="M863.5 135.6L774.5 96.5L753.5 152.2Z" fill="#282828" stroke="#282828"></path><path d="M549.3 0L519.5 61.1L556.8 50.5Z" fill="#0c0c0c" stroke="#0c0c0c"></path><path d="M631 0L549.3 0L576.3 25.5Z" fill="#212121" stroke="#212121"></path><path d="M576.3 25.5L549.3 0L556.8 50.5Z" fill="#000000" stroke="#000000"></path><path d="M741.3 95.6L655.5 129.2L742.3 149.1Z" fill="#1b1b1b" stroke="#1b1b1b"></path><path d="M302.3 420.3L373 524.5L353.8 400.4Z" fill="#1b1b1b" stroke="#1b1b1b"></path><path d="M455 -15.5L422.5 0L519.5 61.1Z" fill="#0c0c0c" stroke="#0c0c0c"></path><path d="M386 52.1L329.5 47.1L360.5 79.6Z" fill="#0c0c0c" stroke="#0c0c0c"></path><path d="M339.3 82.6L286.5 78.5L310 105.1Z" fill="#000000" stroke="#000000"></path><path d="M395.8 0L329.5 47.1L386 52.1Z" fill="#000000" stroke="#000000"></path><path d="M310 105.1L256.3 113.1L298.8 130.1Z" fill="#0c0c0c" stroke="#0c0c0c"></path><path d="M753.5 152.2L741.3 95.6L742.3 149.1Z" fill="#1b1b1b" stroke="#1b1b1b"></path><path d="M774.5 96.5L741.3 95.6L753.5 152.2Z" fill="#000000" stroke="#000000"></path><path d="M422.5 0L404 0L386 52.1Z" fill="#000000" stroke="#000000"></path><path d="M747 489.9L717.3 440.4L652 482.5Z" fill="#0c0c0c" stroke="#0c0c0c"></path><path d="M818.5 344.3L783.8 282.2L732.3 355.3Z" fill="#000000" stroke="#000000"></path><path d="M549.3 0L455 -15.5L503.5 0Z" fill="#000000" stroke="#000000"></path><path d="M503.5 0L455 -15.5L519.5 61.1Z" fill="#1b1b1b" stroke="#1b1b1b"></path><path d="M422.5 0L455 -15.5L404 0Z" fill="#000000" stroke="#000000"></path><path d="M534.8 545.9L634.5 546.9L578.5 460.5Z" fill="#000000" stroke="#000000"></path><path d="M747 489.9L755.3 467.8L742.5 462.4Z" fill="#000000" stroke="#000000"></path><path d="M769.8 428.9L726 421.3L730.5 430.9Z" fill="#000000" stroke="#000000"></path><path d="M783.8 282.2L863.8 167.1L754.5 182.1Z" fill="#141414" stroke="#141414"></path><path d="M329.5 47.1L286.5 78.5L339.3 82.6Z" fill="#000000" stroke="#000000"></path><path d="M298.8 130.1L251.8 116.5L287 236.7Z" fill="#1b1b1b" stroke="#1b1b1b"></path><path d="M404 0L395.8 0L386 52.1Z" fill="#000000" stroke="#000000"></path><path d="M455 -15.5L395.8 0L404 0Z" fill="#000000" stroke="#000000"></path><path d="M742.5 462.4L769.8 428.9L730.5 430.9Z" fill="#000000" stroke="#000000"></path><path d="M644.3 0L631 0L629.5 73.5Z" fill="#212121" stroke="#212121"></path><path d="M549.3 0L631 0L455 -15.5Z" fill="#1b1b1b" stroke="#1b1b1b"></path><path d="M644.3 0L629.5 73.5L679.3 53.5Z" fill="#141414" stroke="#141414"></path><path d="M286.5 78.5L256.3 113.1L310 105.1Z" fill="#141414" stroke="#141414"></path><path d="M248.8 77.6L251.8 116.5L256.3 113.1Z" fill="#000000" stroke="#000000"></path><path d="M256.3 113.1L251.8 116.5L298.8 130.1Z" fill="#000000" stroke="#000000"></path><path d="M652.8 0L644.3 0L679.3 53.5Z" fill="#000000" stroke="#000000"></path><path d="M631 0L644.3 0L455 -15.5Z" fill="#000000" stroke="#000000"></path><path d="M222 409.3L237 420.8L309.3 320.8Z" fill="#000000" stroke="#000000"></path><path d="M302.3 420.3L324.3 526.4L373 524.5Z" fill="#000000" stroke="#000000"></path><path d="M222 409.3L309.3 320.8L150 311.2Z" fill="#000000" stroke="#000000"></path><path d="M747 489.9L652 482.5L641.8 506.5Z" fill="#141414" stroke="#141414"></path><path d="M742.5 462.4L755.3 467.8L769.8 428.9Z" fill="#000000" stroke="#000000"></path><path d="M731.5 0L652.8 0L679.3 53.5Z" fill="#000000" stroke="#000000"></path><path d="M644.3 0L652.8 0L455 -15.5Z" fill="#000000" stroke="#000000"></path><path d="M247.3 526.9L324.3 526.4L302.3 420.3Z" fill="#000000" stroke="#000000"></path><path d="M373 524.5L403 574.9L475.3 505.9Z" fill="#0c0c0c" stroke="#0c0c0c"></path><path d="M805.3 458.5L787.8 421.4L769.8 428.9Z" fill="#000000" stroke="#000000"></path><path d="M769.8 428.9L787.8 421.4L732.3 355.3Z" fill="#000000" stroke="#000000"></path><path d="M787.8 421.4L811.8 361.7L732.3 355.3Z" fill="#212121" stroke="#212121"></path><path d="M811.8 361.7L818.5 344.3L732.3 355.3Z" fill="#0c0c0c" stroke="#0c0c0c"></path><path d="M349.5 564.9L403 574.9L373 524.5Z" fill="#1b1b1b" stroke="#1b1b1b"></path><path d="M534.8 545.9L560.5 600L634.5 546.9Z" fill="#282828" stroke="#282828"></path><path d="M150 311.2L309.3 320.8L258.8 252.3Z" fill="#141414" stroke="#141414"></path><path d="M237 420.8L247.3 526.9L302.3 420.3Z" fill="#000000" stroke="#000000"></path><path d="M634.5 546.9L747 489.9L641.8 506.5Z" fill="#000000" stroke="#000000"></path><path d="M755.3 467.8L805.3 458.5L769.8 428.9Z" fill="#0c0c0c" stroke="#0c0c0c"></path><path d="M863.8 167.1L753.5 152.2L754.5 182.1Z" fill="#212121" stroke="#212121"></path><path d="M741.3 95.6L753 20.5L679.3 53.5Z" fill="#000000" stroke="#000000"></path><path d="M863.8 167.1L783.8 282.2L808.5 292.8Z" fill="#000000" stroke="#000000"></path><path d="M446 600L482.3 600L475.3 505.9Z" fill="#000000" stroke="#000000"></path><path d="M482.3 600L560.5 600L534.8 545.9Z" fill="#000000" stroke="#000000"></path><path d="M634.5 546.9L766 600L747 489.9Z" fill="#000000" stroke="#000000"></path><path d="M286.5 78.5L248.8 77.6L256.3 113.1Z" fill="#1b1b1b" stroke="#1b1b1b"></path><path d="M251.8 116.5L157 222.6L258.8 252.3Z" fill="#282828" stroke="#282828"></path><path d="M290 16.5L248.8 77.6L286.5 78.5Z" fill="#141414" stroke="#141414"></path><path d="M290 16.5L286.5 78.5L329.5 47.1Z" fill="#000000" stroke="#000000"></path><path d="M403 574.9L446 600L475.3 505.9Z" fill="#282828" stroke="#282828"></path><path d="M324.3 526.4L349.5 564.9L373 524.5Z" fill="#212121" stroke="#212121"></path><path d="M403 574.9L438.8 600L446 600Z" fill="#282828" stroke="#282828"></path><path d="M270 600L349.5 564.9L324.3 526.4Z" fill="#212121" stroke="#212121"></path><path d="M387.5 600L438.8 600L403 574.9Z" fill="#1b1b1b" stroke="#1b1b1b"></path><path d="M278 0L290 16.5L395.8 0Z" fill="#000000" stroke="#000000"></path><path d="M395.8 0L290 16.5L329.5 47.1Z" fill="#1b1b1b" stroke="#1b1b1b"></path><path d="M560.5 600L629.8 600L634.5 546.9Z" fill="#1b1b1b" stroke="#1b1b1b"></path><path d="M811.8 361.7L864.5 359.7L818.5 344.3Z" fill="#000000" stroke="#000000"></path><path d="M787.8 421.4L864.5 359.7L811.8 361.7Z" fill="#000000" stroke="#000000"></path><path d="M816.5 492.5L805.3 458.5L755.3 467.8Z" fill="#000000" stroke="#000000"></path><path d="M816.8 458.5L805.3 458.5L816.5 492.5Z" fill="#000000" stroke="#000000"></path><path d="M349.5 564.9L387.5 600L403 574.9Z" fill="#282828" stroke="#282828"></path><path d="M774.5 96.5L753 20.5L741.3 95.6Z" fill="#1b1b1b" stroke="#1b1b1b"></path><path d="M753 20.5L731.5 0L679.3 53.5Z" fill="#0c0c0c" stroke="#0c0c0c"></path><path d="M652.8 0L731.5 0L455 -15.5Z" fill="#000000" stroke="#000000"></path><path d="M816.5 492.5L755.3 467.8L747 489.9Z" fill="#000000" stroke="#000000"></path><path d="M805.3 458.5L816.8 458.5L787.8 421.4Z" fill="#000000" stroke="#000000"></path><path d="M158.5 125.6L157 222.6L251.8 116.5Z" fill="#000000" stroke="#000000"></path><path d="M455 -15.5L278 0L395.8 0Z" fill="#000000" stroke="#000000"></path><path d="M290 16.5L242.3 0L248.8 77.6Z" fill="#000000" stroke="#000000"></path><path d="M248.8 77.6L200.3 79.5L251.8 116.5Z" fill="#0c0c0c" stroke="#0c0c0c"></path><path d="M351.3 620.5L491.3 638.5L438.8 600Z" fill="#282828" stroke="#282828"></path><path d="M438.8 600L491.3 638.5L446 600Z" fill="#000000" stroke="#000000"></path><path d="M446 600L491.3 638.5L482.3 600Z" fill="#000000" stroke="#000000"></path><path d="M482.3 600L491.3 638.5L560.5 600Z" fill="#000000" stroke="#000000"></path><path d="M560.5 600L491.3 638.5L629.8 600Z" fill="#000000" stroke="#000000"></path><path d="M140.3 258.7L150 311.2L258.8 252.3Z" fill="#282828" stroke="#282828"></path><path d="M816.8 458.5L864.5 359.7L787.8 421.4Z" fill="#000000" stroke="#000000"></path><path d="M818.5 344.3L864.5 359.7L808.5 292.8Z" fill="#000000" stroke="#000000"></path><path d="M774.5 96.5L794.8 0L753 20.5Z" fill="#141414" stroke="#141414"></path><path d="M168.8 477.9L237 420.8L222 409.3Z" fill="#000000" stroke="#000000"></path><path d="M168.8 477.9L247.3 526.9L237 420.8Z" fill="#0c0c0c" stroke="#0c0c0c"></path><path d="M349.5 564.9L351.3 620.5L387.5 600Z" fill="#282828" stroke="#282828"></path><path d="M242.3 0L200.3 79.5L248.8 77.6Z" fill="#000000" stroke="#000000"></path><path d="M150 311.2L149 345.4L222 409.3Z" fill="#000000" stroke="#000000"></path><path d="M900 365.7L863.8 167.1L808.5 292.8Z" fill="#000000" stroke="#000000"></path><path d="M111.5 241.2L140.3 258.7L157 222.6Z" fill="#000000" stroke="#000000"></path><path d="M157 222.6L140.3 258.7L258.8 252.3Z" fill="#000000" stroke="#000000"></path><path d="M105.3 327.8L121.3 398.4L149 345.4Z" fill="#1b1b1b" stroke="#1b1b1b"></path><path d="M788.3 600L816.5 492.5L747 489.9Z" fill="#0c0c0c" stroke="#0c0c0c"></path><path d="M900 377.3L900 365.7L864.5 359.7Z" fill="#000000" stroke="#000000"></path><path d="M300.5 621.5L351.3 620.5L349.5 564.9Z" fill="#141414" stroke="#141414"></path><path d="M387.5 600L351.3 620.5L438.8 600Z" fill="#282828" stroke="#282828"></path><path d="M863.8 167.1L863.5 135.6L753.5 152.2Z" fill="#000000" stroke="#000000"></path><path d="M149 345.4L158.5 419.4L222 409.3Z" fill="#000000" stroke="#000000"></path><path d="M200.3 79.5L158.5 125.6L251.8 116.5Z" fill="#212121" stroke="#212121"></path><path d="M278 0L242.3 0L290 16.5Z" fill="#1b1b1b" stroke="#1b1b1b"></path><path d="M118.5 30.5L108.3 132.6L158.5 125.6Z" fill="#000000" stroke="#000000"></path><path d="M38.3 -33.5L242.3 0L278 0Z" fill="#000000" stroke="#000000"></path><path d="M900 51.5L794.8 0L774.5 96.5Z" fill="#282828" stroke="#282828"></path><path d="M753 20.5L794.8 0L731.5 0Z" fill="#000000" stroke="#000000"></path><path d="M731.5 0L794.8 0L455 -15.5Z" fill="#0c0c0c" stroke="#0c0c0c"></path><path d="M158.5 419.4L168.8 477.9L222 409.3Z" fill="#000000" stroke="#000000"></path><path d="M247.3 526.9L270 600L324.3 526.4Z" fill="#000000" stroke="#000000"></path><path d="M900 377.3L864.5 359.7L900 380.4Z" fill="#282828" stroke="#282828"></path><path d="M864.5 359.7L900 365.7L808.5 292.8Z" fill="#000000" stroke="#000000"></path><path d="M863.8 167.1L900 157.2L863.5 135.6Z" fill="#000000" stroke="#000000"></path><path d="M88.8 207.2L111.5 241.2L157 222.6Z" fill="#212121" stroke="#212121"></path><path d="M98.5 297.3L105.3 327.8L150 311.2Z" fill="#000000" stroke="#000000"></path><path d="M149 345.4L121.3 398.4L158.5 419.4Z" fill="#000000" stroke="#000000"></path><path d="M158.5 419.4L123.8 465.8L168.8 477.9Z" fill="#000000" stroke="#000000"></path><path d="M900 380.4L864.5 359.7L900 436.8Z" fill="#000000" stroke="#000000"></path><path d="M900 436.8L864.5 359.7L816.8 458.5Z" fill="#212121" stroke="#212121"></path><path d="M223.8 575.5L270 600L247.3 526.9Z" fill="#1b1b1b" stroke="#1b1b1b"></path><path d="M270 600L300.5 621.5L349.5 564.9Z" fill="#0c0c0c" stroke="#0c0c0c"></path><path d="M351.3 620.5L300.5 621.5L491.3 638.5Z" fill="#282828" stroke="#282828"></path><path d="M900 365.7L900 157.2L863.8 167.1Z" fill="#000000" stroke="#000000"></path><path d="M863.5 135.6L900 51.5L774.5 96.5Z" fill="#1b1b1b" stroke="#1b1b1b"></path><path d="M105.3 327.8L149 345.4L150 311.2Z" fill="#000000" stroke="#000000"></path><path d="M98.5 297.3L150 311.2L140.3 258.7Z" fill="#000000" stroke="#000000"></path><path d="M629.8 600L766 600L634.5 546.9Z" fill="#141414" stroke="#141414"></path><path d="M900 442.9L900 436.8L816.8 458.5Z" fill="#000000" stroke="#000000"></path><path d="M491.3 638.5L766 600L629.8 600Z" fill="#000000" stroke="#000000"></path><path d="M111.5 241.2L98.5 297.3L140.3 258.7Z" fill="#000000" stroke="#000000"></path><path d="M172 519.9L247.3 526.9L168.8 477.9Z" fill="#000000" stroke="#000000"></path><path d="M172 519.9L223.8 575.5L247.3 526.9Z" fill="#000000" stroke="#000000"></path><path d="M270 600L215.3 600L300.5 621.5Z" fill="#000000" stroke="#000000"></path><path d="M900 157.2L900 131.6L863.5 135.6Z" fill="#141414" stroke="#141414"></path><path d="M120.3 521.5L172 519.9L168.8 477.9Z" fill="#000000" stroke="#000000"></path><path d="M900 442.9L816.8 458.5L816.5 492.5Z" fill="#000000" stroke="#000000"></path><path d="M105.3 327.8L91.8 320.7L121.3 398.4Z" fill="#1b1b1b" stroke="#1b1b1b"></path><path d="M98.5 297.3L91.8 320.7L105.3 327.8Z" fill="#000000" stroke="#000000"></path><path d="M77.5 296.7L91.8 320.7L98.5 297.3Z" fill="#282828" stroke="#282828"></path><path d="M900 600L900 442.9L816.5 492.5Z" fill="#000000" stroke="#000000"></path><path d="M900 442.9L911.8 415.3L900 436.8Z" fill="#212121" stroke="#212121"></path><path d="M900 436.8L911.8 415.3L900 380.4Z" fill="#282828" stroke="#282828"></path><path d="M900 380.4L934.8 382.8L900 377.3Z" fill="#000000" stroke="#000000"></path><path d="M900 377.3L934.8 382.8L900 365.7Z" fill="#000000" stroke="#000000"></path><path d="M934.8 382.8L924.8 142.6L900 157.2Z" fill="#000000" stroke="#000000"></path><path d="M900 157.2L924.8 142.6L900 131.6Z" fill="#0c0c0c" stroke="#0c0c0c"></path><path d="M900 624.5L788.3 600L766 600Z" fill="#282828" stroke="#282828"></path><path d="M766 600L788.3 600L747 489.9Z" fill="#282828" stroke="#282828"></path><path d="M158.5 125.6L108.3 132.6L157 222.6Z" fill="#282828" stroke="#282828"></path><path d="M111.5 241.2L77.5 296.7L98.5 297.3Z" fill="#000000" stroke="#000000"></path><path d="M118.5 30.5L158.5 125.6L200.3 79.5Z" fill="#000000" stroke="#000000"></path><path d="M108.3 132.6L88.8 207.2L157 222.6Z" fill="#282828" stroke="#282828"></path><path d="M38.3 -33.5L183.8 0L242.3 0Z" fill="#000000" stroke="#000000"></path><path d="M242.3 0L183.8 0L200.3 79.5Z" fill="#000000" stroke="#000000"></path><path d="M121.3 398.4L123.8 465.8L158.5 419.4Z" fill="#282828" stroke="#282828"></path><path d="M108.8 483.4L123.8 465.8L26.5 441.8Z" fill="#282828" stroke="#282828"></path><path d="M36.3 263.3L77.5 296.7L111.5 241.2Z" fill="#1b1b1b" stroke="#1b1b1b"></path><path d="M26.5 441.8L123.8 465.8L121.3 398.4Z" fill="#212121" stroke="#212121"></path><path d="M934.8 382.8L900 157.2L900 365.7Z" fill="#000000" stroke="#000000"></path><path d="M900 131.6L917.8 101.5L863.5 135.6Z" fill="#141414" stroke="#141414"></path><path d="M900 442.9L934.8 382.8L911.8 415.3Z" fill="#000000" stroke="#000000"></path><path d="M911.8 415.3L934.8 382.8L900 380.4Z" fill="#282828" stroke="#282828"></path><path d="M38.3 -33.5L171.5 0L183.8 0Z" fill="#0c0c0c" stroke="#0c0c0c"></path><path d="M183.8 0L171.5 0L200.3 79.5Z" fill="#000000" stroke="#000000"></path><path d="M165 579.5L223.8 575.5L172 519.9Z" fill="#1b1b1b" stroke="#1b1b1b"></path><path d="M165 579.5L215.3 600L223.8 575.5Z" fill="#000000" stroke="#000000"></path><path d="M223.8 575.5L215.3 600L270 600Z" fill="#0c0c0c" stroke="#0c0c0c"></path><path d="M900 624.5L812.8 600L788.3 600Z" fill="#000000" stroke="#000000"></path><path d="M788.3 600L812.8 600L816.5 492.5Z" fill="#000000" stroke="#000000"></path><path d="M900 442.9L900 600L934.8 382.8Z" fill="#141414" stroke="#141414"></path><path d="M924.8 142.6L917.8 101.5L900 131.6Z" fill="#000000" stroke="#000000"></path><path d="M108.3 132.6L77.3 168.2L88.8 207.2Z" fill="#000000" stroke="#000000"></path><path d="M88.8 207.2L36.3 263.3L111.5 241.2Z" fill="#0c0c0c" stroke="#0c0c0c"></path><path d="M54.5 151.1L77.3 168.2L108.3 132.6Z" fill="#0c0c0c" stroke="#0c0c0c"></path><path d="M917.8 101.5L900 51.5L863.5 135.6Z" fill="#000000" stroke="#000000"></path><path d="M26.5 441.8L121.3 398.4L0 398.4Z" fill="#141414" stroke="#141414"></path><path d="M123.8 465.8L120.3 521.5L168.8 477.9Z" fill="#000000" stroke="#000000"></path><path d="M120.3 521.5L165 579.5L172 519.9Z" fill="#0c0c0c" stroke="#0c0c0c"></path><path d="M900 624.5L838.5 600L812.8 600Z" fill="#141414" stroke="#141414"></path><path d="M812.8 600L838.5 600L816.5 492.5Z" fill="#000000" stroke="#000000"></path><path d="M108.8 483.4L120.3 521.5L123.8 465.8Z" fill="#000000" stroke="#000000"></path><path d="M917.8 101.5L900 27.1L900 51.5Z" fill="#000000" stroke="#000000"></path><path d="M900 51.5L900 27.1L794.8 0Z" fill="#212121" stroke="#212121"></path><path d="M171.5 0L118.5 30.5L200.3 79.5Z" fill="#000000" stroke="#000000"></path><path d="M38.3 -33.5L131.3 0L171.5 0Z" fill="#000000" stroke="#000000"></path><path d="M171.5 0L131.3 0L118.5 30.5Z" fill="#000000" stroke="#000000"></path><path d="M75.8 33.1L54.5 151.1L108.3 132.6Z" fill="#000000" stroke="#000000"></path><path d="M0 198.6L0 223.7L88.8 207.2Z" fill="#000000" stroke="#000000"></path><path d="M75.8 33.1L108.3 132.6L118.5 30.5Z" fill="#000000" stroke="#000000"></path><path d="M0 223.7L36.3 263.3L88.8 207.2Z" fill="#000000" stroke="#000000"></path><path d="M77.5 296.7L0 307.3L91.8 320.7Z" fill="#0c0c0c" stroke="#0c0c0c"></path><path d="M98.5 600L138.3 600L120.3 521.5Z" fill="#0c0c0c" stroke="#0c0c0c"></path><path d="M900 27.1L900 0L794.8 0Z" fill="#000000" stroke="#000000"></path><path d="M794.8 0L900 0L455 -15.5Z" fill="#000000" stroke="#000000"></path><path d="M917.8 101.5L900 0L900 27.1Z" fill="#000000" stroke="#000000"></path><path d="M138.3 600L165 579.5L120.3 521.5Z" fill="#000000" stroke="#000000"></path><path d="M138.3 600L143.8 600L165 579.5Z" fill="#000000" stroke="#000000"></path><path d="M165 579.5L143.8 600L215.3 600Z" fill="#000000" stroke="#000000"></path><path d="M215.3 600L81.5 614.5L300.5 621.5Z" fill="#0c0c0c" stroke="#0c0c0c"></path><path d="M61.5 582.9L120.3 521.5L0 499.9Z" fill="#000000" stroke="#000000"></path><path d="M143.8 600L81.5 614.5L215.3 600Z" fill="#212121" stroke="#212121"></path><path d="M131.3 0L75.8 33.1L118.5 30.5Z" fill="#000000" stroke="#000000"></path><path d="M900 624.5L900 600L838.5 600Z" fill="#212121" stroke="#212121"></path><path d="M838.5 600L900 600L816.5 492.5Z" fill="#0c0c0c" stroke="#0c0c0c"></path><path d="M0 223.7L0 266.2L36.3 263.3Z" fill="#1b1b1b" stroke="#1b1b1b"></path><path d="M36.3 263.3L0 307.3L77.5 296.7Z" fill="#212121" stroke="#212121"></path><path d="M88.8 207.2L77.3 168.2L0 198.6Z" fill="#212121" stroke="#212121"></path><path d="M0 266.2L0 307.3L36.3 263.3Z" fill="#141414" stroke="#141414"></path><path d="M0 398.4L121.3 398.4L91.8 320.7Z" fill="#000000" stroke="#000000"></path><path d="M0 198.6L77.3 168.2L54.5 151.1Z" fill="#000000" stroke="#000000"></path><path d="M0 143.1L0 198.6L54.5 151.1Z" fill="#1b1b1b" stroke="#1b1b1b"></path><path d="M491.3 638.5L900 624.5L766 600Z" fill="#1b1b1b" stroke="#1b1b1b"></path><path d="M900 600L900 624.5L934.8 382.8Z" fill="#000000" stroke="#000000"></path><path d="M61.5 582.9L98.5 600L120.3 521.5Z" fill="#0c0c0c" stroke="#0c0c0c"></path><path d="M138.3 600L81.5 614.5L143.8 600Z" fill="#282828" stroke="#282828"></path><path d="M0 307.3L0 398.4L91.8 320.7Z" fill="#282828" stroke="#282828"></path><path d="M0 499.9L120.3 521.5L108.8 483.4Z" fill="#141414" stroke="#141414"></path><path d="M-16.7 54.1L0 143.1L54.5 151.1Z" fill="#000000" stroke="#000000"></path><path d="M0 398.4L0 411.8L26.5 441.8Z" fill="#282828" stroke="#282828"></path><path d="M0 307.3L-5.7 424.9L0 398.4Z" fill="#282828" stroke="#282828"></path><path d="M0 398.4L-5.7 424.9L0 411.8Z" fill="#000000" stroke="#000000"></path><path d="M0 411.8L-5.7 424.9L26.5 441.8Z" fill="#000000" stroke="#000000"></path><path d="M-16.7 54.1L-5.7 424.9L0 307.3Z" fill="#212121" stroke="#212121"></path><path d="M-16.7 54.1L0 307.3L0 266.2Z" fill="#282828" stroke="#282828"></path><path d="M-16.7 54.1L0 266.2L0 223.7Z" fill="#141414" stroke="#141414"></path><path d="M-16.7 54.1L0 223.7L0 198.6Z" fill="#141414" stroke="#141414"></path><path d="M0 481.5L108.8 483.4L26.5 441.8Z" fill="#212121" stroke="#212121"></path><path d="M61.5 582.9L81.5 614.5L98.5 600Z" fill="#141414" stroke="#141414"></path><path d="M98.5 600L81.5 614.5L138.3 600Z" fill="#1b1b1b" stroke="#1b1b1b"></path><path d="M300.5 621.5L81.5 614.5L491.3 638.5Z" fill="#282828" stroke="#282828"></path><path d="M-5.7 424.9L0 481.5L26.5 441.8Z" fill="#000000" stroke="#000000"></path><path d="M-5.7 424.9L0 499.9L0 481.5Z" fill="#000000" stroke="#000000"></path><path d="M0 481.5L0 499.9L108.8 483.4Z" fill="#000000" stroke="#000000"></path><path d="M61.5 582.9L0 600L81.5 614.5Z" fill="#000000" stroke="#000000"></path><path d="M131.3 0L38.3 -33.5L75.8 33.1Z" fill="#000000" stroke="#000000"></path><path d="M75.8 33.1L-16.7 54.1L54.5 151.1Z" fill="#282828" stroke="#282828"></path><path d="M455 -15.5L38.3 -33.5L278 0Z" fill="#000000" stroke="#000000"></path><path d="M900 0L38.3 -33.5L455 -15.5Z" fill="#000000" stroke="#000000"></path><path d="M0 11.5L-16.7 54.1L75.8 33.1Z" fill="#1b1b1b" stroke="#1b1b1b"></path><path d="M0 143.1L-16.7 54.1L0 198.6Z" fill="#000000" stroke="#000000"></path><path d="M38.3 -33.5L0 11.5L75.8 33.1Z" fill="#282828" stroke="#282828"></path><path d="M38.3 -33.5L0 0L0 11.5Z" fill="#000000" stroke="#000000"></path><path d="M0 11.5L0 0L-16.7 54.1Z" fill="#000000" stroke="#000000"></path><path d="M-5.7 424.9L0 600L0 499.9Z" fill="#000000" stroke="#000000"></path><path d="M0 499.9L0 600L61.5 582.9Z" fill="#000000" stroke="#000000"></path></g></svg>